<?xml version="1.0" encoding="UTF-8" standalone="no"?>
<!-- Creator: CorelDRAW 2017 -->

<svg
   xml:space="preserve"
   width="50.953602mm"
   height="41.566525mm"
   version="1.1"
   style="clip-rule:evenodd;fill-rule:evenodd;image-rendering:optimizeQuality;shape-rendering:geometricPrecision;text-rendering:geometricPrecision"
   viewBox="0 0 4674.904 3813.655"
   id="svg67"
   sodipodi:docname="favicon.svg"
   inkscape:version="1.1.2 (0a00cf5339, 2022-02-04)"
   xmlns:inkscape="http://www.inkscape.org/namespaces/inkscape"
   xmlns:sodipodi="http://sodipodi.sourceforge.net/DTD/sodipodi-0.dtd"
   xmlns:xlink="http://www.w3.org/1999/xlink"
   xmlns="http://www.w3.org/2000/svg"
   xmlns:svg="http://www.w3.org/2000/svg"><sodipodi:namedview
   id="namedview69"
   pagecolor="#ffffff"
   bordercolor="#666666"
   borderopacity="1.0"
   inkscape:pageshadow="2"
   inkscape:pageopacity="0.0"
   inkscape:pagecheckerboard="0"
   inkscape:document-units="mm"
   showgrid="false"
   inkscape:zoom="2.5454082"
   inkscape:cx="155.96713"
   inkscape:cy="151.84205"
   inkscape:window-width="2490"
   inkscape:window-height="1536"
   inkscape:window-x="0"
   inkscape:window-y="0"
   inkscape:window-maximized="1"
   inkscape:current-layer="Ebene_x0020_1" />
 <defs
   id="defs32">
  <style
   type="text/css"
   id="style2">
   <![CDATA[
    .fil11 {fill:#898989;fill-rule:nonzero}
    .fil1 {fill:#E0E0E0;fill-rule:nonzero}
    .fil4 {fill:url(#id0)}
    .fil5 {fill:url(#id1)}
    .fil3 {fill:url(#id2)}
    .fil9 {fill:url(#id3)}
    .fil0 {fill:url(#id4)}
    .fil8 {fill:url(#id5)}
    .fil2 {fill:url(#id6)}
    .fil6 {fill:url(#id7)}
    .fil10 {fill:url(#id8)}
    .fil7 {fill:url(#id9)}
   ]]>
  </style>
  <linearGradient
   id="id0"
   gradientUnits="userSpaceOnUse"
   x1="3978.95"
   y1="3415.3201"
   x2="5159.5801"
   y2="4184.4302">
   <stop
   offset="0"
   style="stop-opacity:1; stop-color:#0F33A1"
   id="stop4" />
   <stop
   offset="1"
   style="stop-opacity:1; stop-color:#1DB9E0"
   id="stop6" />
  </linearGradient>
  <linearGradient
   id="id1"
   gradientUnits="userSpaceOnUse"
   xlink:href="#id0"
   x1="5558.25"
   y1="2499.52"
   x2="3261.5601"
   y2="2118.9399">
  </linearGradient>
  <linearGradient
   id="id2"
   gradientUnits="userSpaceOnUse"
   x1="2149.29"
   y1="3424.52"
   x2="913.59003"
   y2="4193.6602">
   <stop
   offset="0"
   style="stop-opacity:1; stop-color:#0D2D8D"
   id="stop10" />
   <stop
   offset="1"
   style="stop-opacity:1; stop-color:#19A3C5"
   id="stop12" />
  </linearGradient>
  <linearGradient
   id="id3"
   gradientUnits="userSpaceOnUse"
   xlink:href="#id0"
   x1="2163.6001"
   y1="3415.3501"
   x2="982.83002"
   y2="4184.4702">
  </linearGradient>
  <linearGradient
   id="id4"
   gradientUnits="userSpaceOnUse"
   x1="10503.53"
   y1="1395.52"
   x2="2083.9399"
   y2="10550.05">
   <stop
   offset="0"
   style="stop-opacity:1; stop-color:#E0E0E0"
   id="stop16" />
   <stop
   offset="1"
   style="stop-opacity:1; stop-color:#CACACA"
   id="stop18" />
  </linearGradient>
  <linearGradient
   id="id5"
   gradientUnits="userSpaceOnUse"
   x1="2785.3899"
   y1="692.29999"
   x2="2405.3101"
   y2="579.81">
   <stop
   offset="0"
   style="stop-opacity:1; stop-color:#1CADDA"
   id="stop21" />
   <stop
   offset="0.6"
   style="stop-opacity:1; stop-color:#1671BE"
   id="stop23" />
   <stop
   offset="1"
   style="stop-opacity:1; stop-color:#0F34A1"
   id="stop25" />
  </linearGradient>
  <linearGradient
   id="id6"
   gradientUnits="userSpaceOnUse"
   xlink:href="#id2"
   x1="3985.6201"
   y1="3424.52"
   x2="5237.8599"
   y2="4193.6602">
  </linearGradient>
  <linearGradient
   id="id7"
   gradientUnits="userSpaceOnUse"
   xlink:href="#id5"
   x1="3639.72"
   y1="729.26001"
   x2="3259.6899"
   y2="616.78003">
  </linearGradient>
  <linearGradient
   id="id8"
   gradientUnits="userSpaceOnUse"
   xlink:href="#id2"
   x1="2156.9099"
   y1="3424.52"
   x2="904.40997"
   y2="4193.6602">
  </linearGradient>
  <linearGradient
   id="id9"
   gradientUnits="userSpaceOnUse"
   xlink:href="#id0"
   x1="751.03003"
   y1="2499.54"
   x2="2841.72"
   y2="2118.98">
  </linearGradient>
 <linearGradient
   inkscape:collect="always"
   xlink:href="#id2"
   id="linearGradient942"
   gradientUnits="userSpaceOnUse"
   x1="2149.29"
   y1="3424.52"
   x2="913.59003"
   y2="4193.6602" /><linearGradient
   inkscape:collect="always"
   xlink:href="#id0"
   id="linearGradient944"
   gradientUnits="userSpaceOnUse"
   x1="3978.95"
   y1="3415.3201"
   x2="5159.5801"
   y2="4184.4302" /><linearGradient
   inkscape:collect="always"
   xlink:href="#id5"
   id="linearGradient946"
   gradientUnits="userSpaceOnUse"
   x1="2785.3899"
   y1="692.29999"
   x2="2405.3101"
   y2="579.81" /></defs>
 <g
   id="Ebene_x0020_1"
   inkscape:label="Ebene 1"
   inkscape:groupmode="layer"
   transform="translate(-720.89868,-804.62632)">
  <metadata
   id="CorelCorpID_0Corel-Layer" />
  <g
   id="_1930959172912"
   transform="matrix(0.77108335,0,0,0.7710874,690.20893,804.62237)">
   <path
   class="fil0"
   d="m 4552.85,2899.77 c -36.35,-62.7 -74.21,-126.82 -113.86,-192.85 39.61,65.94 77.71,130.18 113.93,192.81 -0.03,0.05 -0.03,0 -0.07,0.05 z"
   id="path35"
   style="fill:url(#id4)" />
   <path
   class="fil1"
   d="m 1589.47,2899.79 c -0.03,-0.02 -0.03,-0.02 -0.06,-0.06 10,-17.18 20.12,-34.5 30.39,-51.95 -10.27,17.48 -20.32,34.76 -30.33,52.01 z"
   id="path37" />
   <path
   class="fil2"
   d="M 4266.48,4615.81 C 4003.34,4393.94 3868.86,4062.38 3869,3724.93 c 0.13,-408.89 193.56,-826.41 539.89,-1067.94 10.13,16.73 20.17,33.4 30.1,49.93 39.65,66.03 77.51,130.15 113.86,192.85 -492.55,386.49 -774.76,1227.02 -286.37,1716.04 z"
   id="path39"
   style="fill:url(#id6)" />
   <path
   class="fil3"
   d="m 1876.18,4615.81 c 488.07,-489.02 205.86,-1329.52 -286.7,-1716.02 10.01,-17.25 20.07,-34.53 30.33,-52.01 36.39,-62 74.22,-125.61 113.65,-190.79 346.49,241.53 530.75,659.05 530.87,1067.94 0.14,337.45 -125.16,669.02 -388.15,890.88 z"
   id="path41"
   style="fill:url(#linearGradient942)" />
   <path
   class="fil4"
   d="m 4973.84,4945.81 c -185.88,-0.03 -447.8,-128.53 -716.54,-339.17 -488.39,-489.02 -206.18,-1329.55 286.37,-1716.04 874,1506.41 814.41,2055.28 430.16,2055.22 z M 4257.3,4606.64 Z m -388.31,-890.88 v 0 c 0.13,-408.89 184.39,-826.41 530.72,-1067.94 -346.33,241.53 -530.59,659.05 -530.72,1067.94 z m 530.72,-1067.94 0.48,0.78 0.48,0.79 0.48,0.78 0.47,0.79 v 0 l 0.48,0.78 v 0 l 0.48,0.78 v 0 l 0.47,0.79 v 0 l 0.48,0.78 v 0 l 0.47,0.79 h 0.01 l 0.47,0.78 v 0 l 0.48,0.78 v 0.01 l 1.41,2.34 0.01,0.01 0.94,1.56 h 0.01 c 7.09,11.75 14.14,23.45 21.12,35.08 v 0 l 0.47,0.77 v 0 l 0.47,0.78 v 0 l 0.46,0.77 -0.46,-0.77 v 0 l -0.47,-0.78 v 0 l -0.47,-0.77 v 0 c -7,-11.63 -14.04,-23.33 -21.12,-35.08 h -0.01 l -0.94,-1.56 -0.01,-0.01 -1.41,-2.34 v -0.01 l -0.48,-0.78 v 0 l -0.47,-0.78 H 4404 l -0.47,-0.79 v 0 l -0.48,-0.78 v 0 l -0.47,-0.79 v 0 l -0.48,-0.78 v 0 l -0.48,-0.78 v 0 l -0.47,-0.79 -0.48,-0.78 -0.48,-0.79 z"
   id="path43"
   style="fill:url(#linearGradient944)" />
   <path
   class="fil5"
   d="M 4266.48,4615.81 C 3640.77,4125.3 3267.32,3519.56 3169.15,2891.77 3052.49,2145.97 3324.33,1369.08 4023.07,717.24 4464.43,305.5 4980.39,115.02 5388.05,115.02 c 108.61,0 209.64,13.57 299.38,40.05 667.7,197.08 717.32,1110.8 -1278.55,2501.92 -346.33,241.53 -530.59,659.05 -530.72,1067.94 v 0 c -0.14,337.45 125.16,669.02 388.31,890.88 z"
   id="path45"
   style="fill:url(#id1)" />
   <path
   class="fil6"
   d="M 3400.98,337.9 C 3307.77,572.23 3266.02,853.18 3246.6,1135.41 3300,1051.59 3358.59,969.04 3422.67,887.49 3534.34,744.75 3660.24,607.84 3800.06,477.4 4284.59,25.24 3636.93,-256.37 3400.97,337.9 Z"
   id="path47"
   style="fill:url(#id7)" />
   <path
   class="fil7"
   d="m 1876.18,4615.81 c 262.99,-221.87 388.29,-553.43 388.15,-890.88 v 0 C 2264.2,3316.04 2079.94,2898.52 1733.46,2656.99 -530.72,1078.81 -162.42,115.02 754.29,115.02 c 407.66,0 923.61,190.48 1364.97,602.22 787.13,734.24 1032.51,1627.27 791.18,2455.73 -153.19,526.02 -502.66,1026.02 -1034.26,1442.84 z"
   id="path49"
   style="fill:url(#id9)" />
   <path
   class="fil8"
   d="m 2741.68,337.9 c 92.9,234.33 134.96,515.28 154.38,797.51 C 2842.32,1051.59 2783.75,969.04 2720,887.49 2608,744.75 2482.42,607.84 2342.6,477.4 1858.06,25.24 2505.4,-256.37 2741.68,337.9 Z"
   id="path51"
   style="fill:url(#linearGradient946)" />
   <path
   class="fil9"
   d="m 1168.67,4945.81 c -384.26,0 -443.81,-548.76 429.98,-2055.2 492.57,386.5 774.78,1227 286.7,1716.02 -212.16,166.25 -420.05,281.34 -589.61,322.48 -45.31,10.96 -87.88,16.7 -127.07,16.7 z m 716.68,-339.17 z m 388.15,-890.88 c -0.13,-408.89 -184.39,-826.41 -530.87,-1067.94 346.49,241.53 530.75,659.05 530.87,1067.94 z M 1742.63,2647.82 c -39.42,65.18 -77.26,128.79 -113.65,190.79 36.32,-62 74.16,-125.57 113.65,-190.79 z"
   id="path53"
   style="fill:url(#id3)" />
   <path
   class="fil10"
   d="m 1876.18,4615.81 c 488.07,-489.02 205.86,-1329.52 -286.7,-1716.02 10.01,-17.25 20.07,-34.53 30.33,-52.01 36.39,-62 74.22,-125.61 113.65,-190.79 346.49,241.53 539.92,659.05 540.05,1067.94 0.14,337.45 -134.34,669.02 -397.33,890.88 z"
   id="path55"
   style="fill:url(#id8)" />
  </g>
  
  
  
  
  
  
  
 </g>
</svg>
